<svg width="148" height="30" viewBox="0 0 148 30" fill="none" xmlns="http://www.w3.org/2000/svg">
<g id="logo" opacity="0.45">
<path id="Combined Shape" fill-rule="evenodd" clip-rule="evenodd" d="M2.71767 14.0411C2.32178 14.4665 2.12358 15.0505 2.12358 15.7928C2.12358 16.5355 2.32178 17.1175 2.71767 17.5381C3.11355 17.9588 3.63858 18.1691 4.29171 18.1691C4.92481 18.1691 5.44774 17.954 5.85838 17.5228C6.26903 17.0927 6.47461 16.5155 6.47461 15.7928C6.47461 15.0606 6.26903 14.4786 5.85838 14.0484C5.44774 13.6172 4.92481 13.4022 4.29171 13.4022C3.63858 13.4022 3.11355 13.6151 2.71767 14.0411ZM5.41295 12.0659C5.90266 12.3922 6.2569 12.8329 6.47461 13.3874V8.91724H8.55366V19.9066H6.47461V18.1839C6.2569 18.7384 5.90266 19.1812 5.41295 19.5133C4.9227 19.8449 4.33125 20.0104 3.63858 20.0104C2.94539 20.0104 2.32178 19.8423 1.76723 19.5054C1.21267 19.1691 0.779888 18.6815 0.46782 18.0431C0.155751 17.4042 0.000244141 16.6541 0.000244141 15.7928C0.000244141 14.9314 0.155751 14.1823 0.46782 13.5434C0.779888 12.9051 1.21267 12.4175 1.76723 12.0806C2.32178 11.7443 2.94539 11.5756 3.63858 11.5756C4.33125 11.5756 4.9227 11.739 5.41295 12.0659ZM17.627 12.4962C18.1915 13.1203 18.4735 13.9964 18.4735 15.1245V19.9067H16.3945V15.3622C16.3945 14.7091 16.2258 14.2015 15.8895 13.8404C15.5526 13.4788 15.0925 13.298 14.5084 13.298C13.9143 13.298 13.4393 13.4914 13.083 13.8773C12.7266 14.2637 12.5485 14.8182 12.5485 15.5404V19.9067H10.4546V11.6796H12.5485V13.328C12.7662 12.7734 13.1246 12.3401 13.6249 12.0286C14.1246 11.7165 14.7013 11.561 15.355 11.561C16.3054 11.561 17.0629 11.8726 17.627 12.4962ZM22.0224 15.7928C22.0224 15.0505 22.2206 14.4665 22.6165 14.0411C23.0124 13.6151 23.5369 13.4022 24.1906 13.4022C24.8237 13.4022 25.3466 13.6172 25.7572 14.0484C26.1679 14.4786 26.3735 15.0606 26.3735 15.7928C26.3735 16.5155 26.1679 17.0927 25.7572 17.5228C25.3466 17.954 24.8237 18.1691 24.1906 18.1691C23.5369 18.1691 23.0124 17.9588 22.6165 17.5381C22.2206 17.1175 22.0224 16.5355 22.0224 15.7928ZM26.3735 13.3874C26.1652 12.8329 25.8142 12.3922 25.3192 12.0659C24.8237 11.739 24.2301 11.5756 23.5369 11.5756C22.8442 11.5756 22.2206 11.7443 21.6661 12.0806C21.1115 12.4175 20.6787 12.9051 20.3667 13.5434C20.0546 14.1823 19.8986 14.9314 19.8986 15.7928C19.8986 16.6541 20.0546 17.4042 20.3667 18.0431C20.6787 18.6815 21.1115 19.1691 21.6661 19.5054C22.2206 19.8423 22.8442 20.0104 23.5369 20.0104C24.2301 20.0104 24.8237 19.8449 25.3192 19.5133C25.8142 19.1812 26.1652 18.7384 26.3735 18.1839V19.9066H28.4525V11.68H26.3735V13.3874ZM32.8778 12.7711C32.3728 13.0636 31.9769 13.4764 31.6902 14.0114C31.4029 14.5454 31.2595 15.1643 31.2595 15.8675C31.2595 16.5702 31.4029 17.1917 31.6902 17.731C31.9769 18.2708 32.3728 18.6867 32.8778 18.9782C33.3828 19.2707 33.9521 19.4162 34.5858 19.4162C35.5958 19.4162 36.3997 19.0999 36.9985 18.4663C37.5979 17.8327 37.8973 16.9661 37.8973 15.8675C37.8973 14.7784 37.5979 13.9171 36.9985 13.2835C36.3997 12.6504 35.5958 12.333 34.5858 12.333C33.9521 12.333 33.3828 12.479 32.8778 12.7711ZM36.7165 12.236C37.2958 12.5681 37.7486 13.0457 38.0755 13.6693C38.4023 14.2935 38.5657 15.0257 38.5657 15.8675C38.5657 16.7088 38.4023 17.4437 38.0755 18.0725C37.7486 18.7014 37.2958 19.1811 36.7165 19.5132C36.1377 19.8448 35.4714 20.0103 34.7191 20.0103C33.8478 20.0103 33.1082 19.7805 32.4993 19.3203C31.8905 18.8596 31.4767 18.2534 31.2595 17.5011V23.7082H30.6058V11.8428H31.2595V14.2487C31.4767 13.4964 31.8905 12.8902 32.4993 12.43C33.1082 11.9693 33.8478 11.7389 34.7191 11.7389C35.4714 11.7389 36.1377 11.9044 36.7165 12.236ZM40.8818 15.8674C40.8818 14.7783 41.1812 13.9169 41.7805 13.2833C42.3794 12.6502 43.1838 12.3329 44.1938 12.3329C44.8269 12.3329 45.3962 12.4794 45.9012 12.7709C46.4062 13.0635 46.7995 13.4762 47.082 14.0113C47.364 14.5458 47.5053 15.1641 47.5053 15.8674C47.5053 16.57 47.364 17.1915 47.082 17.7313C46.7995 18.2706 46.4062 18.6865 45.9012 18.9785C45.3962 19.2706 44.8269 19.4166 44.1938 19.4166C43.1738 19.4166 42.3672 19.0998 41.7732 18.4662C41.1791 17.8325 40.8818 16.9659 40.8818 15.8674ZM47.5053 14.2485C47.2871 13.4963 46.8764 12.89 46.2723 12.4299C45.6687 11.9691 44.926 11.7388 44.0451 11.7388C43.2929 11.7388 42.6266 11.9048 42.0478 12.2364C41.4685 12.5685 41.0156 13.0461 40.6888 13.6692C40.3625 14.2933 40.1991 15.026 40.1991 15.8674C40.1991 16.7087 40.3625 17.444 40.6888 18.0724C41.0156 18.7013 41.4685 19.181 42.0478 19.5131C42.6266 19.8446 43.2929 20.0107 44.0451 20.0107C44.926 20.0107 45.6687 19.7803 46.2723 19.3201C46.8764 18.8594 47.2871 18.2537 47.5053 17.501V19.9063H48.1732V11.8431H47.5053V14.2485ZM50.3415 11.8429L53.371 19.0152L56.1775 11.8429H56.9202L52.2424 23.7084H51.4701L53.0146 19.8624L49.5993 11.8429H50.3415ZM71.0573 15.1986C71.0573 14.041 70.7726 13.1644 70.2033 12.5708C69.634 11.9767 68.8944 11.6799 67.9835 11.6799C67.2502 11.6799 66.6045 11.8797 66.0452 12.2809C65.4859 12.682 65.1121 13.2788 64.9245 14.0705C64.7558 13.2788 64.4068 12.682 63.8776 12.2809C63.3478 11.8797 62.7163 11.6799 61.9841 11.6799C61.2809 11.6799 60.6599 11.8702 60.1201 12.2514C59.5803 12.6325 59.2166 13.1944 59.0289 13.9372V11.8428H58.3605V19.9065H59.0289V15.6145C59.0289 14.5154 59.2835 13.6841 59.7933 13.1201C60.303 12.5561 60.9788 12.2735 61.8207 12.2735C62.6124 12.2735 63.2387 12.526 63.6989 13.031C64.1596 13.536 64.39 14.2687 64.39 15.2287V19.9065H65.0431V15.6145C65.0431 14.5154 65.2977 13.6841 65.808 13.1201C66.3177 12.5561 66.9983 12.2735 67.8496 12.2735C68.6419 12.2735 69.2655 12.526 69.7209 13.031C70.1759 13.536 70.4041 14.2687 70.4041 15.2287V19.9065H71.0573V15.1986ZM75.3193 12.6599C74.8343 12.9077 74.4405 13.2835 74.1385 13.7885C73.8364 14.2935 73.6809 14.9166 73.6709 15.6593H80.0266C80.0662 14.9166 79.9428 14.2909 79.6555 13.7811C79.3682 13.2709 78.9818 12.895 78.4974 12.652C78.0119 12.4095 77.4874 12.2888 76.9228 12.2888C76.3388 12.2888 75.8042 12.4121 75.3193 12.6599ZM78.9428 18.8301C79.4969 18.4195 79.8337 17.857 79.9528 17.1443H80.6503C80.5021 18.0062 80.0983 18.6988 79.4399 19.2234C78.7815 19.7484 77.9428 20.0104 76.9228 20.0104C76.1606 20.0104 75.4848 19.8449 74.896 19.5133C74.3071 19.1812 73.8443 18.7036 73.5075 18.08C73.1706 17.4564 73.0025 16.7189 73.0025 15.8676C73.0025 15.0257 73.1706 14.2935 73.5075 13.6694C73.8443 13.0458 74.3071 12.5682 74.896 12.2361C75.4848 11.9045 76.1606 11.739 76.9228 11.739C77.7051 11.739 78.3809 11.9045 78.9502 12.2361C79.5195 12.5682 79.9502 13.0036 80.2422 13.5434C80.5343 14.0827 80.6803 14.6599 80.6803 15.2735C80.6803 15.5212 80.6555 15.7837 80.606 16.0605H73.6709C73.6809 16.8127 73.8364 17.4437 74.1385 17.954C74.4405 18.4637 74.8316 18.8401 75.3119 19.0826C75.7916 19.3256 76.3192 19.4463 76.8933 19.4463C77.7051 19.4463 78.3883 19.2407 78.9428 18.8301ZM89.6492 15.1986C89.6492 14.041 89.3524 13.1644 88.7583 12.5708C88.1642 11.9767 87.3919 11.6799 86.442 11.6799C85.7088 11.6799 85.063 11.8729 84.5037 12.2587C83.9444 12.6451 83.5659 13.2145 83.3677 13.9662V11.8428H82.6998V19.9065H83.3677V15.6145C83.3677 14.5065 83.6324 13.6673 84.1627 13.098C84.6919 12.5286 85.392 12.244 86.2638 12.244C87.1052 12.244 87.7683 12.4986 88.2533 13.0089C88.7383 13.5186 88.9807 14.2587 88.9807 15.2287V19.9065H89.6492V15.1986ZM92.9906 12.4519V17.6343C92.9906 18.2785 93.1045 18.7165 93.3322 18.9484C93.5599 19.1814 93.9611 19.2974 94.5351 19.2974H95.3812V19.9068H94.4608C93.7181 19.9068 93.1767 19.7334 92.8346 19.3865C92.493 19.0402 92.3222 18.4566 92.3222 17.6343V12.4519H91.0455V11.8431H92.3222V9.79356H92.9906V11.8431H95.3812V12.4519H92.9906ZM102.405 14.2635C102.307 13.4812 101.999 12.865 101.485 12.4148C100.97 11.9646 100.291 11.739 99.4501 11.739C98.6684 11.739 98.0448 11.9346 97.5793 12.3257C97.1138 12.7169 96.8814 13.2388 96.8814 13.8924C96.8814 14.3779 97.0026 14.7606 97.2451 15.0432C97.4876 15.3252 97.7796 15.5334 98.1212 15.6668C98.4628 15.8007 98.9256 15.9372 99.5097 16.0748C100.024 16.1939 100.438 16.3078 100.75 16.4169C101.062 16.526 101.321 16.6968 101.529 16.9288C101.737 17.1618 101.841 17.4712 101.841 17.8571C101.841 18.3426 101.68 18.7358 101.358 19.0373C101.036 19.3399 100.589 19.4907 100.014 19.4907C99.2524 19.4907 98.651 19.3004 98.2103 18.9192C97.7696 18.5381 97.5197 18.0605 97.4607 17.4859H96.7923C96.9009 18.2682 97.2398 18.8845 97.8091 19.3352C98.3784 19.7853 99.1091 20.0104 99.9999 20.0104C100.742 20.0104 101.341 19.8128 101.796 19.4163C102.252 19.0205 102.48 18.506 102.48 17.8723C102.48 17.3573 102.356 16.9514 102.109 16.6541C101.861 16.3573 101.559 16.1396 101.203 16.001C100.846 15.8623 100.376 15.729 99.7917 15.6004C99.2667 15.4717 98.8587 15.3547 98.5666 15.2509C98.2746 15.1475 98.0268 14.9862 97.8244 14.7685C97.6215 14.5508 97.5197 14.2588 97.5197 13.8924C97.5197 13.3969 97.6905 13.001 98.0321 12.7042C98.3737 12.4069 98.8465 12.2588 99.4501 12.2588C100.134 12.2588 100.675 12.4491 101.076 12.8307C101.477 13.2119 101.707 13.6895 101.767 14.2635H102.405Z" fill="black"/>
<path id="Stroke 23" d="M113.843 0.000244141V29.885" stroke="black" stroke-width="0.5"/>
<path id="Combined Shape_2" fill-rule="evenodd" clip-rule="evenodd" d="M128.541 14.9389C128.541 10.3337 132.288 6.58733 136.893 6.58733C138.364 6.58733 139.746 6.9732 140.947 7.64425L142.481 6.11079C140.863 5.08339 138.951 4.47876 136.893 4.47876C131.116 4.47876 126.433 9.1619 126.433 14.9389C126.433 16.9968 127.037 18.9088 128.065 20.5271L129.598 18.9931C128.927 17.7918 128.541 16.4101 128.541 14.9389ZM144.326 9.07803C144.719 8.68531 144.719 8.04905 144.326 7.65632C143.933 7.2636 143.296 7.2636 142.904 7.65632C142.511 8.04905 142.511 8.68531 142.904 9.07803C143.296 9.47075 143.933 9.47075 144.326 9.07803ZM136.421 19.5854C136.338 19.5021 136.241 19.4399 136.137 19.3987H136.138C134.476 18.7356 133.222 17.3313 132.749 15.6054L132.749 15.606C132.695 15.4077 132.591 15.2206 132.435 15.0651C131.959 14.5886 131.186 14.5886 130.709 15.0651C130.233 15.5411 130.233 16.3144 130.709 16.7904C130.865 16.9465 131.052 17.0503 131.251 17.1041L131.25 17.1051C132.975 17.5769 134.38 18.8315 135.043 20.4931C135.084 20.5964 135.146 20.6934 135.23 20.7767C135.558 21.1056 136.092 21.1056 136.421 20.7767C136.75 20.4478 136.75 19.9143 136.421 19.5854ZM140.416 16.2285C140.812 16.2901 141.193 16.4709 141.498 16.7762C142.262 17.54 142.262 18.7788 141.498 19.5426C140.734 20.3064 139.496 20.3064 138.732 19.5426C138.427 19.2374 138.246 18.8563 138.184 18.4604L138.182 18.462C137.852 16.3518 134.72 12.9533 132.693 12.2807L132.694 12.2796C132.519 12.2216 132.354 12.1247 132.215 11.985C131.738 11.5084 131.738 10.7356 132.215 10.2591C132.691 9.78256 133.464 9.78203 133.941 10.2591C134.08 10.3983 134.177 10.5633 134.235 10.7383L134.236 10.7377C134.909 12.7646 138.308 15.8958 140.418 16.2269L140.416 16.2285ZM141.371 14.1652C141.412 14.268 141.474 14.365 141.558 14.4482C141.887 14.7772 142.42 14.7772 142.749 14.4482C143.078 14.1193 143.078 13.5858 142.749 13.2569C142.666 13.1736 142.569 13.1114 142.466 13.0708C140.804 12.4071 139.55 11.0028 139.077 9.27803H139.077C139.023 9.08035 138.919 8.89268 138.763 8.73665C138.287 8.26011 137.514 8.26011 137.037 8.73665C136.561 9.21319 136.561 9.98598 137.037 10.463C137.193 10.618 137.381 10.7224 137.579 10.7762L137.578 10.7767C139.304 11.2495 140.708 12.5036 141.371 14.1652ZM129.406 20.7426C129.912 20.2365 130.733 20.2365 131.24 20.7426C131.746 21.2486 131.746 22.0699 131.24 22.576C130.733 23.0815 129.912 23.0815 129.406 22.576C128.9 22.0699 128.9 21.2486 129.406 20.7426ZM144.288 11.0844L145.839 9.53411C146.795 11.1119 147.353 12.9584 147.353 14.9389C147.353 20.7153 142.669 25.3985 136.893 25.3985C134.913 25.3985 133.066 24.8408 131.488 23.885L133.039 22.3337C134.192 22.9404 135.501 23.2899 136.893 23.2899C141.498 23.2899 145.244 19.5435 145.244 14.9389C145.244 13.5467 144.894 12.2389 144.288 11.0844Z" fill="black"/>
</g>
</svg>
